<svg id="Layer_1" data-name="Layer 1" xmlns="http://www.w3.org/2000/svg" viewBox="0 0 26 26"><path d="M25.19,21.67,23.3,9.48a2,2,0,0,0-2-1.74h-2V5.88A5.82,5.82,0,0,0,13.46.07h-.34A5.81,5.81,0,0,0,7.31,5.88V7.74h-2a2,2,0,0,0-2,1.74L1.4,21.67A3.6,3.6,0,0,0,5,25.82H21.63a3.6,3.6,0,0,0,3.56-4.15ZM8.31,5.88a4.82,4.82,0,0,1,4.81-4.81h.34a4.82,4.82,0,0,1,4.82,4.81V7.74h-10Zm15.3,18a2.61,2.61,0,0,1-2,.91H5a2.57,2.57,0,0,1-2-.91,2.6,2.6,0,0,1-.59-2.09L4.28,9.63a1,1,0,0,1,1-.89h16a1.05,1.05,0,0,1,1,.89L24.2,21.82A2.6,2.6,0,0,1,23.61,23.91Z" fill="#414042"/><path d="M8.31,10.75a1.6,1.6,0,0,0-1,0,1.79,1.79,0,0,0,0,3.44,1.6,1.6,0,0,0,1,0,1.79,1.79,0,0,0,0-3.44Zm0,2.34a.78.78,0,0,1-1,0,.79.79,0,0,1,0-1.24.78.78,0,0,1,1,0,.79.79,0,0,1,0,1.24Z" fill="#414042"/><path d="M19.28,10.88a1.69,1.69,0,0,0-.5-.08,1.42,1.42,0,0,0-.5.08,1.8,1.8,0,0,0,0,3.45,1.7,1.7,0,0,0,.51.08,1.33,1.33,0,0,0,.49-.08,1.79,1.79,0,0,0,0-3.45Zm0,2.35a.8.8,0,0,1-.5.18.78.78,0,0,1-.5-.18.8.8,0,0,1,0-1.25.78.78,0,0,1,.5-.18.8.8,0,0,1,.5.18.8.8,0,0,1,0,1.25Z" fill="#414042"/></svg>