<svg id="Layer_1" data-name="Layer 1" xmlns="http://www.w3.org/2000/svg" viewBox="0 0 24 24"><path d="M6.4,1.89H8.15l.66.2A6.58,6.58,0,0,1,12,4.15a6.85,6.85,0,0,1,3.85-2.26h1.75a.44.44,0,0,0,.15.08,7.12,7.12,0,0,1,5.43,4.8,17.09,17.09,0,0,1,.49,1.77v2.22a.54.54,0,0,0-.1.2,10.66,10.66,0,0,1-2.87,5.87,20.9,20.9,0,0,1-8.36,5.23,1.32,1.32,0,0,1-.83,0A23.54,23.54,0,0,1,6.1,19.24C3.1,17.15.87,14.52.4,10.76A7.92,7.92,0,0,1,2.9,3.63,7.38,7.38,0,0,1,6.4,1.89ZM12,5.67c-.34-.39-.64-.74-1-1.08A4.89,4.89,0,0,0,7.93,2.93,5.82,5.82,0,0,0,1.84,6.85,8.39,8.39,0,0,0,3,14.92c2,2.86,4.87,4.51,8.07,5.9a10.14,10.14,0,0,1,.1-5.08c-2.23.14-3.27-.44-4.07-2.28a6,6,0,0,1-.32-.93A10.78,10.78,0,0,1,6.44,8.9a11.25,11.25,0,0,1,4.45.77.62.62,0,0,0,.55,0A10.86,10.86,0,0,1,17.3,7c.37-.07.75-.09,1.16-.14a13.34,13.34,0,0,1,0,4.88,9.2,9.2,0,0,1-.91,2.56c-1.11,1.9-2.93,2.37-5.3,1.49a8.68,8.68,0,0,0,0,5.24A22.06,22.06,0,0,0,18,18,11.41,11.41,0,0,0,22,13a7.68,7.68,0,0,0-.57-7.56C19.28,2.36,15.08,1.84,12.56,5,12.4,5.23,12.21,5.43,12,5.67Zm-.15,8.41a4.69,4.69,0,0,1,.34-.54c.76-.9,1.51-1.8,2.3-2.68.24-.27.59-.55.94-.15s0,.64-.3.9a19,19,0,0,0-1.51,1.6,18.45,18.45,0,0,0-1,1.61,2.9,2.9,0,0,0,2.1.43A3.18,3.18,0,0,0,17.12,13a11.41,11.41,0,0,0,.47-5,11,11,0,0,0-4.18,1.4,6.32,6.32,0,0,0-1.5,1.27A2.73,2.73,0,0,0,11.86,14.08Zm-1.61-1.89.43-1.62L7.42,9.82A7.19,7.19,0,0,0,8.6,14a1.81,1.81,0,0,0,2.29.64c-.1-.14-.2-.29-.31-.42-.43-.52-.89-1-1.29-1.57a.63.63,0,0,1,0-.64c.11-.12.43-.06.65,0S10.13,12.09,10.25,12.19Z" fill="#f1f2f2"/></svg>