<svg id="Layer_1" data-name="Layer 1" xmlns="http://www.w3.org/2000/svg" viewBox="0 0 24 24"><path d="M16.31.38c.39.19.42.25.36.78-.1,1-.21,2.07-.32,3.1a.43.43,0,0,1-.49.41.44.44,0,0,1-.4-.49c.11-1.07.23-2.14.33-3.21a.58.58,0,0,1,.43-.59Z" fill="#f1f2f2"/><path d="M5.6,18a2.86,2.86,0,0,1-2.88.18A3,3,0,0,1,2.31,13l1.84-1.25a.85.85,0,0,0,.26-.3l3.45-7a1.8,1.8,0,0,1,1.89-1,4.91,4.91,0,0,1,2.54,1.11,13.59,13.59,0,0,1,5,7.58,4.36,4.36,0,0,1,0,2.35,1.8,1.8,0,0,1-1.46,1.42c-.41.07-.83.07-1.25.11l-3.73.3-1.41.11-.4,0,.15.22,2.71,4a1.85,1.85,0,0,1,0,2.13,1.82,1.82,0,0,1-2.7.32,2.92,2.92,0,0,1-.46-.53c-1-1.47-2-2.95-3-4.43A2.17,2.17,0,0,0,5.6,18Zm10.94-4.66a9.55,9.55,0,0,0-.21-1.3,13.06,13.06,0,0,0-4.6-6.73A4.38,4.38,0,0,0,10,4.41a1.12,1.12,0,0,0-1.48,1A4.9,4.9,0,0,0,8.7,7.66a13.3,13.3,0,0,0,4,6.08A5.33,5.33,0,0,0,14.89,15a1.11,1.11,0,0,0,1.42-.69A7.42,7.42,0,0,0,16.54,13.32ZM7.59,7.06l-.06.1Q6.41,9.47,5.26,11.78a.26.26,0,0,0,0,.3c.73,1.07,1.46,2.13,2.16,3.2.19.28.36.47.72.35a1.83,1.83,0,0,1,.34,0l3.87-.3.75-.07A14.21,14.21,0,0,1,7.59,7.06Zm-3,5.53c-.62.42-1.23.83-1.82,1.25a1.89,1.89,0,0,0-.81,1.55,2.06,2.06,0,0,0,2.9,2A16.48,16.48,0,0,0,6.89,16Zm1.8,4.89c.25.36.48.69.7,1l2.54,3.74a1,1,0,0,0,1,.45.94.94,0,0,0,.58-1.5l-3-4.45a.36.36,0,0,0-.52-.13C7.2,16.89,6.79,17.18,6.35,17.48Z" fill="#f1f2f2"/><path d="M17.67,6.24c.09-.12.15-.27.26-.34,1-.69,2.06-1.36,3.09-2a.46.46,0,0,1,.64.13.44.44,0,0,1-.14.63c-1,.68-2.05,1.36-3.09,2A.49.49,0,0,1,17.67,6.24Z" fill="#f1f2f2"/><path d="M18.89,8.78l1.77.31,1.87.35c.32.05.51.26.46.53a.5.5,0,0,1-.61.36l-1.48-.27-2-.36a.44.44,0,0,1-.43-.35.75.75,0,0,1,.13-.43C18.66,8.84,18.81,8.82,18.89,8.78Z" fill="#f1f2f2"/><path d="M11.66,7.84a2.44,2.44,0,0,1,1.45,4.4.47.47,0,0,1-.59,0,.42.42,0,0,1-.16-.5.86.86,0,0,1,.25-.29,1.49,1.49,0,0,0,.54-1.56A1.46,1.46,0,0,0,12,8.77a1.55,1.55,0,0,0-1.11.2.59.59,0,0,1-.46.06.51.51,0,0,1-.28-.36.59.59,0,0,1,.21-.42A2.13,2.13,0,0,1,11.66,7.84Z" fill="#f1f2f2"/></svg>