<svg id="Layer_1" data-name="Layer 1" xmlns="http://www.w3.org/2000/svg" viewBox="0 0 24 24"><path d="M9.69,12a1.16,1.16,0,0,1,.18-.24L18.57,3A1.91,1.91,0,0,1,21,2.62,1.89,1.89,0,0,1,21.5,5.4a3,3,0,0,1-.29.32l-3,3a1.14,1.14,0,0,0-.17.15,1.89,1.89,0,0,1,1.16,1,2,2,0,0,1,.1,1.47c1.39.54,1.7,1.06,1.49,2.49l.19,0a1.86,1.86,0,0,1,1,2.94,3,3,0,0,1-.29.33l-4.19,4.19c-.41.41-.81.83-1.24,1.23a4,4,0,0,1-5.53,0C9.42,21.29,8.18,20,6.88,18.7A1.7,1.7,0,0,1,6.47,18q-1-2.89-1.93-5.79a1,1,0,0,0-.21-.34L1.86,9.39a.53.53,0,0,1,0-.88l.73-.73a1.5,1.5,0,0,1,1.11-.47,5.57,5.57,0,0,1,2.84.76A4.88,4.88,0,0,1,8.46,9.91ZM2.78,9A1.39,1.39,0,0,1,3,9.12L5.18,11.3a1.21,1.21,0,0,1,.24.39q1,3,2,5.9a1.27,1.27,0,0,0,.34.55l3.48,3.47a3.09,3.09,0,0,0,4.55,0l3.83-3.83,1.5-1.5a.87.87,0,0,0,.29-.82.9.9,0,0,0-1.5-.51.5.5,0,1,1-.67-.74l.46-.47a.84.84,0,0,0,.22-.76.9.9,0,0,0-1.5-.5.49.49,0,0,1-.73,0,.49.49,0,0,1,.06-.73l.49-.5a.9.9,0,0,0-.43-1.44.87.87,0,0,0-.89.22.51.51,0,0,1-.84-.26.55.55,0,0,1,.2-.51l1.44-1.42L20.6,4.92a.9.9,0,0,0-.45-1.55.94.94,0,0,0-.88.34L10,13c-.38.38-.7.33-1-.14-.46-.81-.94-1.61-1.42-2.41A3.88,3.88,0,0,0,6.36,9.13,5.4,5.4,0,0,0,4,8.3a.89.89,0,0,0-.72.16C3.15,8.6,3,8.76,2.78,9Z" fill="#f1f2f2"/><path d="M11,2.38V3.79c0,.35-.19.56-.49.55A.48.48,0,0,1,10,3.8V.92a.49.49,0,0,1,.49-.54A.49.49,0,0,1,11,.93Z" fill="#f1f2f2"/><path d="M15.5,2.39a1.6,1.6,0,0,1-.2.34q-1,1-2,1.95a.5.5,0,1,1-.7-.7l2-2a.49.49,0,0,1,.57-.11A.58.58,0,0,1,15.5,2.39Z" fill="#f1f2f2"/><path d="M8.59,4.32a.59.59,0,0,1-.3.46.47.47,0,0,1-.52,0,.43.43,0,0,1-.12-.11L5.77,2.77a.53.53,0,0,1-.17-.56A.5.5,0,0,1,6.41,2q1,1,1.95,2A2.3,2.3,0,0,1,8.59,4.32Z" fill="#f1f2f2"/></svg>