<svg id="Layer_1" data-name="Layer 1" xmlns="http://www.w3.org/2000/svg" viewBox="0 0 24 24"><path d="M18.52,2.55c.31.07.62.13.92.22a5,5,0,0,1,2.25,1.41c.22.25.24.48.06.65s-.42.15-.65-.09a4.24,4.24,0,0,0-2.9-1.39,4.27,4.27,0,1,0,3.94,5.11A4.39,4.39,0,0,0,22,6.13c-.13-.35,0-.64.36-.62s.34.17.4.37a5,5,0,0,1-1,5.11.35.35,0,0,0-.06.44c.52,1.15,1,2.3,1.55,3.46.22.48,0,.73-.49.69s-1.13-.1-1.69-.13a.33.33,0,0,0-.26.14c-.3.5-.56,1-.86,1.52a.8.8,0,0,1-.41.32c-.22.05-.34-.14-.43-.32L18,15l-.71,1.3a8,8,0,0,1-.44.82.61.61,0,0,1-.4.28.58.58,0,0,1-.39-.27c-.31-.51-.59-1-.87-1.56a.24.24,0,0,0-.29-.15c-.58.06-1.16.11-1.75.15-.43,0-.62-.23-.44-.64.52-1.18,1-2.36,1.58-3.53a.34.34,0,0,0-.06-.42,4.84,4.84,0,0,1-1-5.1,4.88,4.88,0,0,1,4-3.3l.15-.05ZM13.64,14.74c.51,0,1-.06,1.43-.12a.57.57,0,0,1,.67.37c.2.4.43.78.66,1.21.34-.63.65-1.21,1-1.79a.65.65,0,0,1,1.18,0c.13.22.24.45.37.67s.38.72.6,1.12c.23-.43.46-.8.65-1.19a.58.58,0,0,1,.71-.39,3.07,3.07,0,0,0,.53.05l.86.06-.67-1.52-.67-1.49a5,5,0,0,1-3,1,5.12,5.12,0,0,1-3-1Z" fill="#f1f2f2"/><path d="M3.25,14.09a4.62,4.62,0,0,1-1-2.18,1.52,1.52,0,0,1,0-.21c0-.18-.08-.24-.25-.26A1.3,1.3,0,0,1,.73,10.18,11.83,11.83,0,0,1,.85,7a11.48,11.48,0,0,1,.62-1.66.39.39,0,0,1,.58-.23.41.41,0,0,1,.12.6A5.39,5.39,0,0,0,1.52,8.5c0,.52,0,1.05,0,1.57a.54.54,0,0,0,.6.56V8.13a.55.55,0,0,1,.7-.6A7,7,0,0,0,7.1,6.82c.18-.1.35-.23.53-.34a.52.52,0,0,1,.71,0,4.21,4.21,0,0,0,2.16.94c.54.08.66.22.66.76v2.41a.52.52,0,0,0,.58-.38.58.58,0,0,0,0-.18c0-.92,0-1.84-.1-2.74A5.11,5.11,0,0,0,3.2,4.41c-.23.2-.46.22-.63,0s-.15-.42.1-.64A5.21,5.21,0,0,1,4.32,2.76a.4.4,0,0,0,.29-.42A1.92,1.92,0,0,1,5.8.59a2,2,0,0,1,2.06.2A2,2,0,0,1,8.7,2.44a.27.27,0,0,0,.2.28,5.76,5.76,0,0,1,3.6,4.62,17,17,0,0,1,.07,2.86,1.33,1.33,0,0,1-1.19,1.24l-.2,0a5.36,5.36,0,0,1-1.12,2.61l.44.22A2.72,2.72,0,0,1,12.22,17c0,1.9,0,3.79,0,5.69a.81.81,0,0,1-.92.93c-.67,0-1.35,0-2,0-.3,0-.49-.15-.49-.4s.19-.39.5-.39h2.13v-.34c0-1.8,0-3.6,0-5.4a2.1,2.1,0,0,0-1.7-2.22c.24.49.46,1,.68,1.43s.12.68-.4.78a8.74,8.74,0,0,0-.89.17.44.44,0,0,0-.26.24c-.25.7-.48,1.4-.72,2.11-.07.21-.15.4-.42.41s-.35-.16-.43-.36l-.62-1.37-.52,1.14c0,.09-.09.18-.12.27a.43.43,0,0,1-.44.32.42.42,0,0,1-.38-.35c-.24-.72-.49-1.42-.72-2.14a.35.35,0,0,0-.32-.29c-.31,0-.61-.1-.91-.16s-.55-.32-.36-.71.45-1,.68-1.45a2,2,0,0,0-1.65,1.7c0,2,0,4.09,0,6.14,0,0,0,0,0,.08H7.52c.36,0,.56.25.44.54a.42.42,0,0,1-.44.26H3.74c-.6,0-1.21,0-1.81,0a.78.78,0,0,1-.85-.81c0-.39,0-.78,0-1.17,0-1.52,0-3,0-4.55a2.77,2.77,0,0,1,1.79-2.8ZM2.93,8.42v.46A25.93,25.93,0,0,0,3,11.67a3.68,3.68,0,0,0,3.8,3.15,3.73,3.73,0,0,0,3.57-3.65c0-.91,0-1.81,0-2.72,0-.06,0-.13,0-.2a5.23,5.23,0,0,1-2.29-.92.34.34,0,0,0-.29,0,6,6,0,0,1-2.55.92C4.48,8.36,3.72,8.38,2.93,8.42Zm3.15,9.12c-.13-.21-.26-.4-.38-.6-.3-.52-.6-1.06-.92-1.58A2.58,2.58,0,0,0,4.41,15l-.63,1.34a5.59,5.59,0,0,0,.62.12.81.81,0,0,1,.81.71c.11.44.28.85.45,1.33ZM8.87,15a3.34,3.34,0,0,0-.38.42c-.42.68-.82,1.37-1.23,2.05a.21.21,0,0,0,0,.17l.4.88c.19-.56.37-1,.52-1.54a.57.57,0,0,1,.54-.46c.27,0,.53-.1.81-.16Zm-1-12.64A1.16,1.16,0,0,0,6.67,1.21,1.18,1.18,0,0,0,5.43,2.33ZM7.43,15.6H5.86L6.65,17Z" fill="#f1f2f2"/><path d="M15.92,9.73c0-.27.06-.59.1-.91a.57.57,0,0,0-.17-.52c-.22-.22-.41-.46-.61-.7a.63.63,0,0,1,.35-1.08,5.31,5.31,0,0,1,.77-.17A.73.73,0,0,0,17,5.9a5.66,5.66,0,0,1,.34-.59c.37-.62.89-.62,1.26,0,.14.22.29.45.41.68a.54.54,0,0,0,.44.32c.29.06.59.12.88.2a.63.63,0,0,1,.35,1.09c-.21.26-.44.5-.66.76a.5.5,0,0,0-.1.31c0,.31,0,.62.08.92a.72.72,0,0,1-.25.74.7.7,0,0,1-.75,0A3.07,3.07,0,0,0,17.91,10a3.22,3.22,0,0,0-1,.41A.64.64,0,0,1,15.92,9.73Zm2-3.9c-.16.27-.32.51-.45.76a.87.87,0,0,1-.66.48c-.27,0-.54.12-.81.18a4,4,0,0,1,.74,1,4.11,4.11,0,0,1,0,1.27c.23-.1.48-.19.72-.31a.89.89,0,0,1,.88,0c.23.12.48.21.76.33,0-.34-.05-.63-.09-.92A.76.76,0,0,1,19.29,8c.2-.22.4-.46.62-.72-.31-.07-.58-.14-.86-.19a.85.85,0,0,1-.64-.46C18.28,6.35,18.13,6.11,18,5.83Z" fill="#f1f2f2"/><path d="M9.66,20.28c.28,0,.56,0,.84,0s.46.17.46.41a.4.4,0,0,1-.44.4q-.88,0-1.77,0a.42.42,0,0,1-.45-.39.43.43,0,0,1,.46-.42C9.06,20.27,9.36,20.28,9.66,20.28Z" fill="#f1f2f2"/><path d="M6.65,12.9c-.33-.12-.64-.2-.93-.34A.39.39,0,0,1,5.54,12a.4.4,0,0,1,.55-.16,1.09,1.09,0,0,0,1.13,0,.37.37,0,0,1,.53.17.36.36,0,0,1-.16.52C7.29,12.69,7,12.78,6.65,12.9Z" fill="#f1f2f2"/><path d="M8.18,9.57a.4.4,0,0,1,.4.43.41.41,0,1,1-.81,0A.4.4,0,0,1,8.18,9.57Z" fill="#f1f2f2"/><path d="M4.72,10a.39.39,0,0,1,.41-.42.43.43,0,1,1-.41.42Z" fill="#f1f2f2"/></svg>