<svg id="Layer_1" data-name="Layer 1" xmlns="http://www.w3.org/2000/svg" viewBox="0 0 24 24"><path d="M8.59.25l.06,0a2.47,2.47,0,0,1,3,1.52L14.16,7l.15.3A1.76,1.76,0,0,1,17,9a1.75,1.75,0,0,1,1.36,2.5,1.68,1.68,0,0,1,.5,2.16l1,.49a4.54,4.54,0,0,1,2.23,2.22c.51,1.06,1,2.1,1.56,3.16.17.35.11.62-.17.76s-.53,0-.7-.33c-.53-1.05-1.05-2.1-1.57-3.16A3.61,3.61,0,0,0,19.49,15c-.86-.43-1.7-.88-2.57-1.29A17.68,17.68,0,0,1,14.33,12a4.94,4.94,0,0,0-.75-.47.92.92,0,0,0-.95,1.58l4.45,3.53.22.18a.49.49,0,0,1,.09.72.48.48,0,0,1-.71,0c-.47-.36-.95-.72-1.41-1.11a.45.45,0,0,0-.59-.07c-1.26.64-2.54,1.26-3.81,1.89l-.3.15a4.13,4.13,0,0,0,1.94,2.34c1.28.66,2.54,1.35,3.81,2,.13.07.31.17.33.29a.81.81,0,0,1-.1.55.39.39,0,0,1-.55.09l-.95-.5L12,21.6a4.39,4.39,0,0,1-2-2.05c-.1-.22-.21-.44-.32-.67a6.2,6.2,0,0,1-.83.35,2.41,2.41,0,0,1-2.6-.78.48.48,0,0,0-.11-.09L.33,6.6c0-.07,0-.14,0-.21A2.47,2.47,0,0,1,.93,4.21l.31-.32ZM11.82,16.7l2.3-1.15-.27-.22c-.66-.52-1.33-1-2-1.57a1.84,1.84,0,0,1-.6-2,1.8,1.8,0,0,1,1.49-1.33,2.3,2.3,0,0,1,1.78.49l.66.47,0,0-.12-.24-4.44-9A1.51,1.51,0,0,0,8.5,1.39L5.34,3l-.26.13ZM2.5,4.38a1.57,1.57,0,0,0-1,2.45l5.25,10.6A1.54,1.54,0,0,0,9.22,18Zm.9-.45,6.73,13.59L11,17.1,4.25,3.51Zm13.1,7.73c.24-.12.47-.22.68-.34a.75.75,0,0,0,.31-1,.73.73,0,0,0-.9-.38c-.25.09-.49.24-.74.36ZM15.41,9.45A.8.8,0,0,0,16,8.78a.68.68,0,0,0-.35-.7.79.79,0,0,0-.9.08Zm2.52,3.7a.53.53,0,0,0-.05-.78c-.24-.21-.5-.15-1,.25Z" fill="#ad974e"/><path d="M8.86,5.07,9.47,6.3c.15.33.08.6-.2.73a.49.49,0,0,1-.67-.28c-.42-.85-.84-1.69-1.25-2.53a.49.49,0,1,1,.87-.44C8.43,4.2,8.64,4.64,8.86,5.07Z" fill="#ad974e"/><path d="M10.17,4.41c.21.41.41.83.61,1.24a.49.49,0,1,1-.86.45c-.42-.84-.84-1.69-1.25-2.53a.49.49,0,0,1,.18-.71c.27-.14.53,0,.7.29Z" fill="#ad974e"/></svg>