<svg id="Layer_1" data-name="Layer 1" xmlns="http://www.w3.org/2000/svg" viewBox="0 0 24 24"><path d="M23.89,12.71a11.79,11.79,0,0,1-2.06,6.68l-.28-.16-1.5-.76-.44-.23-.06,0-.5-.3-.1-.05-1-.56-.1-.06a7.07,7.07,0,0,0,1-1.72l.1.05,1,.56.1.05,1,.57a9.78,9.78,0,0,0,.83-3.05H20.61c0-.33.06-.66.06-1s0-.67-.06-1h1.24A9.84,9.84,0,0,0,21,8.65l-1,.57-.09,0-1,.56-.09.05a7.07,7.07,0,0,0-1-1.72L18,8.1l1-.56.09,0,1-.57a10.3,10.3,0,0,0-2.23-2.24l-.58,1,0,.08a8.83,8.83,0,0,0-1.74-1l.06-.08.56-1A9.75,9.75,0,0,0,13,2.86V5.33a5.47,5.47,0,0,0-1-.08,5.55,5.55,0,0,0-1,.08V2.86a9.84,9.84,0,0,0-3,.82l.57,1,.05.09a8.28,8.28,0,0,0-1.73,1l0-.09-.58-1A10,10,0,0,0,4,6.92l1,.57.09,0L6,8.1l.1.05a6.94,6.94,0,0,0-1,1.73L5,9.83l-1-.56L4,9.22,3,8.65a9.84,9.84,0,0,0-.83,3.06H3.39c0,.33-.06.66-.06,1s0,.67.06,1H2.15A9.52,9.52,0,0,0,3,16.76l1-.56.1-.05,1-.57.09-.05a6.94,6.94,0,0,0,1,1.73l-.1,0-1,.55-.1.05-1,.54L3,19l-.85.46A11.88,11.88,0,0,1,1.24,7.65a11.44,11.44,0,0,1,1-1.73,11.81,11.81,0,0,1,3-3A10.24,10.24,0,0,1,6.94,2,11.78,11.78,0,0,1,17.05,2a11.06,11.06,0,0,1,1.74,1,12,12,0,0,1,3,3,11.34,11.34,0,0,1,1,1.72A11.8,11.8,0,0,1,23.89,12.71Z" fill="#020202"/><path d="M15.71,6.25,13,9.09l-.16.17-1,1.09-.68.69-.13.14-.23.24-.08.09a1,1,0,0,0-.16.2,1.55,1.55,0,0,0-.12.22,1.61,1.61,0,0,0-.17.65.3.3,0,0,0,0,.13.25.25,0,0,0,0,.12,1.71,1.71,0,0,0,1,1.48,1.58,1.58,0,0,0,.76.18,1.55,1.55,0,0,0,.78-.19,1.59,1.59,0,0,0,.69-.59,1.4,1.4,0,0,0,.25-.54h0l.1-.37.05-.17.27-.92.43-1.49.06-.19,1.1-3.76A0,0,0,0,0,15.71,6.25ZM12,12.71h0Z" fill="#020202"/><rect x="4.13" y="20.67" width="15.75" height="2.53" rx="1.26" fill="#020202"/></svg>