<svg id="Layer_1" data-name="Layer 1" xmlns="http://www.w3.org/2000/svg" viewBox="0 0 24 24"><path d="M19.69,7.94V3.69A3.53,3.53,0,0,0,16.17.17H7.83A3.53,3.53,0,0,0,4.31,3.69V7.94a3.51,3.51,0,0,0-2.94,3.47V20.3a3.52,3.52,0,0,0,3.51,3.52H19.12a3.52,3.52,0,0,0,3.51-3.52V11.41A3.51,3.51,0,0,0,19.69,7.94ZM6.31,3.69A1.52,1.52,0,0,1,7.83,2.17h8.34a1.52,1.52,0,0,1,1.52,1.52v4.2H6.31ZM20.63,20.3a1.52,1.52,0,0,1-1.51,1.52H4.88A1.52,1.52,0,0,1,3.37,20.3V11.41A1.53,1.53,0,0,1,4.31,10a1.56,1.56,0,0,1,.57-.11H19.12a1.56,1.56,0,0,1,.57.11,1.53,1.53,0,0,1,.94,1.41Z" fill="#020202"/><path d="M14.83,14.1a3.33,3.33,0,0,0-6.16,1.76,1.93,1.93,0,0,0,0,.24,3.33,3.33,0,0,0,6.64,0,1.93,1.93,0,0,0,0-.24A3.31,3.31,0,0,0,14.83,14.1Zm-1.53,2a1.32,1.32,0,0,1-2.6,0,1,1,0,0,1,0-.24,1.33,1.33,0,1,1,2.66,0A1,1,0,0,1,13.3,16.1Z" fill="#020202"/></svg>