<svg id="Layer_1" data-name="Layer 1" xmlns="http://www.w3.org/2000/svg" viewBox="0 0 123.73 56.12"><path d="M21.87,20.39,13.14,41H10.67L2,20.39H4.69l7.23,17.82,7.26-17.82Z" fill="#8e793d"/><path d="M28.25,41H25.72V10.11h2.53V32.7l1.46-1.76,10-10.55h3.17l-8.35,8.86L44.25,41H41L32.79,31.1l-4.54,4.83Z" fill="#8e793d"/><path d="M62.65,41H60.49l-.2-3.44a7.55,7.55,0,0,1-2.88,2.81,9.15,9.15,0,0,1-8.11.18,6.66,6.66,0,0,1-2.71-2.34,6,6,0,0,1-1-3.38,5.84,5.84,0,0,1,1.07-3.49,7.16,7.16,0,0,1,2.94-2.4A9.93,9.93,0,0,1,53.87,28a12.91,12.91,0,0,1,3.31.43,11.13,11.13,0,0,1,2.94,1.21v-1.4a6,6,0,0,0-.82-3.2,5.43,5.43,0,0,0-2.25-2,7.21,7.21,0,0,0-3.24-.71,9,9,0,0,0-3.12.57,9.61,9.61,0,0,0-2.92,1.67l-.91-2.18a13.64,13.64,0,0,1,3.61-1.78A12.8,12.8,0,0,1,54.3,20,8.85,8.85,0,0,1,58.73,21a7.25,7.25,0,0,1,2.89,3,9.49,9.49,0,0,1,1,4.57ZM53.6,39a6.69,6.69,0,0,0,3.24-.78,6.05,6.05,0,0,0,2.34-2.18,6.4,6.4,0,0,0,.94-3.23v-.7a9.42,9.42,0,0,0-2.76-1.47,9.55,9.55,0,0,0-3.1-.51,7.09,7.09,0,0,0-4.32,1.26,3.88,3.88,0,0,0-1,5.46,4.79,4.79,0,0,0,1.93,1.57A6.43,6.43,0,0,0,53.6,39Z" fill="#8e793d"/><path d="M70.1,41H67.57V20.39h2.24l.1,4.54a8,8,0,0,1,3-3.67A8.71,8.71,0,0,1,77.7,20c.33,0,.67,0,1,.05s.7.09,1,.15l-.31,2.29a9.8,9.8,0,0,0-2-.21,7,7,0,0,0-3.81,1A7.21,7.21,0,0,0,71,26.2a9.26,9.26,0,0,0-.93,4.24Z" fill="#8e793d"/><path d="M102,41H99.66l-.12-4A9.29,9.29,0,0,1,96,40.2,11.13,11.13,0,0,1,85.67,40a10.34,10.34,0,0,1-3.78-3.82,10.88,10.88,0,0,1-1.39-5.47,10.86,10.86,0,0,1,1.39-5.48,10.31,10.31,0,0,1,3.78-3.81A10.5,10.5,0,0,1,91.09,20a10.35,10.35,0,0,1,4.83,1.12,9.19,9.19,0,0,1,3.5,3.09V10.11H102ZM91.28,39.08a8.26,8.26,0,0,0,4.09-1,8,8,0,0,0,2.95-2.84,7.7,7.7,0,0,0,1.1-4.08V30.2a7.71,7.71,0,0,0-1.09-4.06A8,8,0,0,0,95.4,23.3a8.27,8.27,0,0,0-4.12-1,8.11,8.11,0,0,0-4.19,1.1,8,8,0,0,0-2.93,3,9.16,9.16,0,0,0,0,8.59,8.14,8.14,0,0,0,2.92,3A8,8,0,0,0,91.28,39.08Z" fill="#8e793d"/><path d="M123.29,41H105.57v-1.5l13.49-16.78H106.21V20.39h16.63v1.34L109.21,38.67h14.08Z" fill="#8e793d"/></svg>